<?xml version="1.0" encoding="UTF-8" standalone="no"?>
<svg width="60px" height="30px" viewBox="0 0 60 30" version="1.1" xmlns="http://www.w3.org/2000/svg" xmlns:xlink="http://www.w3.org/1999/xlink" xmlns:sketch="http://www.bohemiancoding.com/sketch/ns">
    <!-- Generator: Sketch 3.5.2 (25235) - http://www.bohemiancoding.com/sketch -->
    <title>cover_video</title>
    <desc>Created with Sketch.</desc>
    <defs></defs>
    <g id="Gamesession" stroke="none" stroke-width="1" fill="none" fill-rule="evenodd" sketch:type="MSPage">
        <g id="gamesession/list_desktop" sketch:type="MSArtboardGroup" transform="translate(-90.000000, -837.000000)" fill="#E6E5E2">
            <g id="player/item-copy-4" sketch:type="MSLayerGroup" transform="translate(36.000000, 774.000000)">
                <g id="cover_video" transform="translate(54.000000, 63.000000)" sketch:type="MSShapeGroup">
                    <path d="M0,14.8660714 C0,6.16071429 6.69642857,0 14.8660714,0 L45.1339286,0 C53.3035714,0 60,6.16071429 60,14.8660714 C60,23.5714286 53.3035714,30 45.1339286,30 L14.8660714,30 C6.69642857,30 0,23.5714286 0,14.8660714 L0,14.8660714 Z M49.9553571,11.9196429 C48.4821429,11.9196429 47.2767857,13.125 47.2767857,14.4642857 C47.2767857,15.8035714 48.4821429,17.0089286 49.9553571,17.0089286 C51.4285714,17.0089286 52.5,15.8035714 52.5,14.4642857 C52.5,13.125 51.4285714,11.9196429 49.9553571,11.9196429 L49.9553571,11.9196429 Z M44.1964286,6.42857143 C42.7232143,6.42857143 41.6517857,7.63392857 41.6517857,8.97321429 C41.6517857,10.3125 42.7232143,11.5178571 44.1964286,11.5178571 C45.6696429,11.5178571 46.875,10.3125 46.875,8.97321429 C46.875,7.63392857 45.6696429,6.42857143 44.1964286,6.42857143 L44.1964286,6.42857143 Z M44.1964286,17.5446429 C42.7232143,17.5446429 41.6517857,18.6160714 41.6517857,20.0892857 C41.6517857,21.4285714 42.7232143,22.6339286 44.1964286,22.6339286 C45.6696429,22.6339286 46.875,21.4285714 46.875,20.0892857 C46.875,18.6160714 45.6696429,17.5446429 44.1964286,17.5446429 L44.1964286,17.5446429 Z M38.5714286,11.9196429 C37.0982143,11.9196429 35.8928571,13.125 35.8928571,14.4642857 C35.8928571,15.8035714 37.0982143,17.0089286 38.5714286,17.0089286 C40.0446429,17.0089286 41.1160714,15.8035714 41.1160714,14.4642857 C41.1160714,13.125 40.0446429,11.9196429 38.5714286,11.9196429 L38.5714286,11.9196429 Z M7.5,13.5267857 L7.5,16.4732143 C7.5,16.875 7.76785714,17.1428571 8.16964286,17.1428571 L12.8571429,17.1428571 L12.8571429,22.5 C12.8571429,22.9017857 13.125,23.0357143 13.5267857,23.0357143 L16.4732143,23.0357143 C16.875,23.0357143 17.1428571,22.7678571 17.1428571,22.3660714 L17.1428571,17.1428571 L22.2321429,17.1428571 C22.6339286,17.1428571 22.9017857,16.875 22.9017857,16.4732143 L22.9017857,13.5267857 C22.9017857,13.125 22.6339286,12.8571429 22.2321429,12.8571429 L17.1428571,12.8571429 L17.1428571,7.63392857 C17.1428571,7.23214286 16.875,6.96428571 16.4732143,6.96428571 L13.5267857,6.96428571 C13.125,6.96428571 12.8571429,7.23214286 12.8571429,7.63392857 L12.8571429,12.8571429 L8.03571429,12.8571429 C7.76785714,12.8571429 7.5,13.125 7.5,13.5267857 L7.5,13.5267857 Z" id="gamepad"></path>
                </g>
            </g>
        </g>
    </g>
</svg>