<?xml version="1.0" encoding="UTF-8" standalone="no"?>
<svg width="93px" height="60px" viewBox="0 0 93 60" version="1.1" xmlns="http://www.w3.org/2000/svg" xmlns:xlink="http://www.w3.org/1999/xlink" xmlns:sketch="http://www.bohemiancoding.com/sketch/ns">
    <!-- Generator: Sketch 3.5.2 (25235) - http://www.bohemiancoding.com/sketch -->
    <title>cover_board</title>
    <desc>Created with Sketch.</desc>
    <defs></defs>
    <g id="Gamesession" stroke="none" stroke-width="1" fill="none" fill-rule="evenodd" sketch:type="MSPage">
        <g id="gamesession/list_desktop" sketch:type="MSArtboardGroup" transform="translate(-74.000000, -664.000000)" fill="#E6E5E2">
            <g id="player/item-copy-3" sketch:type="MSLayerGroup" transform="translate(36.000000, 616.000000)">
                <g id="cover_board" transform="translate(38.000000, 48.000000)" sketch:type="MSShapeGroup">
                    <path d="M59.5469799,19.5703125 C61.6610738,25.078125 63.3053691,32.4609375 67.533557,37.5 C75.0503356,46.40625 60.8389262,50.0390625 52.5,50.0390625 C44.1610738,50.0390625 29.9496644,46.40625 37.466443,37.5 C41.6946309,32.4609375 43.3389262,25.078125 45.4530201,19.5703125 C47.2147651,21.4453125 49.7986577,22.5 52.5,22.5 C55.2013423,22.5 57.7852349,21.4453125 59.5469799,19.5703125 L59.5469799,19.5703125 Z M67.2986577,48.515625 C69.0604027,49.6875 70,50.9765625 70,52.5 C70,56.6015625 62.1308725,60 52.5,60 C42.8691275,60 35,56.6015625 35,52.5 C35,50.9765625 35.9395973,49.6875 37.7013423,48.515625 C41.2248322,51.328125 47.8020134,52.5 52.5,52.5 C57.1979866,52.5 63.7751678,51.328125 67.2986577,48.515625 L67.2986577,48.515625 Z M52.5,20.0390625 C58.0201342,20.0390625 62.4832215,15.46875 62.4832215,9.9609375 C62.4832215,4.453125 58.0201342,0 52.5,0 C46.9798658,0 42.5167785,4.453125 42.5167785,9.9609375 C42.5167785,15.46875 46.9798658,20.0390625 52.5,20.0390625 L52.5,20.0390625 Z" id="board"></path>
                    <path d="M93,10.5517241 C92.9310345,9.17241379 91.8275862,8.06896552 90.4482759,8 L90.4482759,8 L71.5517241,8 C70.1724138,8.06896552 69.0689655,9.17241379 69,10.5517241 L69,10.5517241 L69,29.4482759 C69.0689655,30.8275862 70.1724138,31.9310345 71.5517241,32 L71.5517241,32 L90.4482759,32 C91.8275862,31.9310345 92.9310345,30.8275862 93,29.4482759 L93,29.4482759 L93,10.5517241 L93,10.5517241 Z M75,28.3448276 C73.6206897,28.3448276 72.5172414,27.2413793 72.5172414,25.862069 C72.5172414,24.4827586 73.6206897,23.3793103 75,23.3793103 C76.3793103,23.3793103 77.4827586,24.4827586 77.4827586,25.862069 C77.4827586,27.2413793 76.3793103,28.3448276 75,28.3448276 L75,28.3448276 Z M75,16.4827586 C73.6206897,16.4827586 72.5172414,15.3793103 72.5172414,14 C72.5172414,12.6206897 73.6206897,11.5172414 75,11.5172414 C76.3793103,11.5172414 77.4827586,12.6206897 77.4827586,14 C77.4827586,15.3793103 76.3793103,16.4827586 75,16.4827586 L75,16.4827586 Z M81,22.4827586 C79.6206897,22.4827586 78.5172414,21.3793103 78.5172414,20 C78.5172414,18.6206897 79.6206897,17.5172414 81,17.5172414 C82.3793103,17.5172414 83.4827586,18.6206897 83.4827586,20 C83.4827586,21.3793103 82.3793103,22.4827586 81,22.4827586 L81,22.4827586 Z M87,28.4827586 C85.6206897,28.4827586 84.5172414,27.3793103 84.5172414,26 C84.5172414,24.6206897 85.6206897,23.5172414 87,23.5172414 C88.3793103,23.5172414 89.4827586,24.6206897 89.4827586,26 C89.4827586,27.3793103 88.3793103,28.4827586 87,28.4827586 L87,28.4827586 Z M87,16.4827586 C85.6206897,16.4827586 84.5172414,15.3793103 84.5172414,14 C84.5172414,12.6206897 85.6206897,11.5172414 87,11.5172414 C88.3793103,11.5172414 89.4827586,12.6206897 89.4827586,14 C89.4827586,15.3793103 88.3793103,16.4827586 87,16.4827586 L87,16.4827586 Z" id="dices"></path>
                    <path d="M46.5169345,21.7680125 C47.7338088,22.1428689 48.2018373,22.8925817 47.9210202,24.0171509 L40.7133802,50.7256686 C40.6197745,51.1942391 40.3389573,51.5690954 39.8709288,51.7565236 C39.4029002,52.0376659 38.9348716,52.0376659 38.4668431,51.9439518 L18.9968545,46.6959624 C18.4352203,46.5085342 18.0607974,46.2273919 17.7799803,45.7588214 C17.5927688,45.383965 17.4991631,44.9153945 17.5927688,44.4468241 L18.8096431,40.0422615 L10.1979174,42.3851139 C8.88743743,42.6662562 8.044986,42.2913998 7.76416886,41.0731166 L0.0885003082,12.2091746 C-0.192316834,11.0846055 0.182106022,10.3348927 1.3989803,9.8663222 L23.2091117,4.05604817 C23.6771402,3.96233408 24.1451688,3.96233408 24.6131974,4.24347637 C25.081226,4.43090456 25.3620431,4.80576095 25.4556488,5.27433144 L28.6382431,16.9885936 L46.5169345,21.7680125 M37.5307859,48.289102 L43.8959745,24.6731496 L29.5743002,20.7371575 L33.2249231,34.3257016 C33.5993459,35.3565566 33.1313174,36.1062694 31.9144431,36.4811258 L22.5538717,39.0114064 L21.2433917,43.8845395 L37.5307859,48.289102" id="cards"></path>
                </g>
            </g>
        </g>
    </g>
</svg>