<?xml version="1.0" encoding="UTF-8" standalone="no"?>
<svg width="200px" height="200px" viewBox="0 0 200 200" version="1.1" xmlns="http://www.w3.org/2000/svg" xmlns:xlink="http://www.w3.org/1999/xlink">
    <!-- Generator: Sketch 3.7.2 (28276) - http://www.bohemiancoding.com/sketch -->
    <title>default</title>
    <desc>Created with Sketch.</desc>
    <defs></defs>
    <g id="Assets" stroke="none" stroke-width="1" fill="none" fill-rule="evenodd">
        <g id="default">
            <path d="M0,0 L200,0 L200,200 L0,200 L0,0 Z M100.152344,150.840511 C133.521529,150.840511 172.304687,147.253618 172.304687,113.884432 C172.304687,80.5152466 133.521529,30 100.152344,30 C66.7831581,30 28,80.5152466 28,113.884432 C28,147.253618 66.7831581,150.840511 100.152344,150.840511 Z" id="Rectangle-1" fill="#FFFFFF" opacity="0.5"></path>
            <path d="M168.850352,128.131656 C170.782781,124.115919 171.849848,119.400311 171.849848,113.865283 C171.849848,97.7031988 162.751832,77.5188758 149.577484,61 C142.947432,68.4467804 139,77.8006398 139,87.9585446 C139,105.857873 151.256877,121.260619 168.850352,128.131656 Z" id="Oval-1" fill="#FFFFFF" opacity="0.7"></path>
            <path d="M138.959861,49.2498449 C130.428034,58.0476216 113.746398,64.0230564 94.5642443,64.0230564 C79.0961415,64.0230564 65.2539964,60.1375387 56,54.0198193 C69.0938966,39.990161 85.0041382,30 99.8436841,30 C112.939019,30 126.868146,37.7797287 138.959861,49.2498449 Z" id="Oval-4" fill="#FFFFFF" opacity="0.7"></path>
            <path d="M43.4239398,137.543002 C42.6845631,138.216806 41.916286,138.866292 41.1208449,139.489947 C33.0699406,133.973473 28,125.801824 28,113.736876 C28,103.912569 31.3616756,92.602063 36.9571466,81.5320277 C47.9836163,88.219017 55.2013213,99.3490967 55.2013213,111.949338 C55.2013213,118.188071 53.4318882,124.066391 50.3068049,129.223441 C44.4145915,129.672536 41,130.879144 41,133.548502 C41,134.877607 41.8465333,136.225408 43.4239398,137.543002 Z" id="Oval-4-Copy" fill="#FFFFFF" opacity="0.7"></path>
            <path d="M100.5,149.048502 C133.360943,149.048502 160,141.004346 160,133.548502 C160,126.092658 133.360943,130.048502 100.5,130.048502 C67.6390574,130.048502 41,126.092658 41,133.548502 C41,141.004346 67.6390574,149.048502 100.5,149.048502 Z" id="Oval-10" fill="#000000" opacity="0.5"></path>
            <path d="M144.369469,129.002234 C147.089738,157.532464 155.726133,179.118266 100.262337,179.118266 C44.8006971,179.118266 53.4342645,157.534142 56.1548879,129.005561 C67.0496102,128.911215 82.8804234,130.048502 100.5,130.048502 C117.864828,130.048502 133.492243,128.943864 144.369469,129.002234 Z" id="Oval-11" fill="#FFFFFF"></path>
            <path d="M78.5,83.866044 C82.0898509,83.866044 85,87.105771 85,83.8660442 C85,80.6263174 82.0898509,78 78.5,78 C74.9101491,78 72,80.6263174 72,83.8660442 C72,87.105771 74.9101491,83.866044 78.5,83.866044 Z" id="Oval-2-Copy-2" fill="#000000" opacity="0.8"></path>
            <path d="M122.5,83.866044 C126.089851,83.866044 129,87.105771 129,83.8660442 C129,80.6263174 126.089851,78 122.5,78 C118.910149,78 116,80.6263174 116,83.8660442 C116,87.105771 118.910149,83.866044 122.5,83.866044 Z" id="Oval-2-Copy-3" fill="#000000" opacity="0.8"></path>
            <path d="M86,105 C94.3036897,107.538693 113,107.058334 113,107.058334 C113,107.058334 106.770734,118.884683 91.6237528,116.304371 C93.2751902,110.902762 86,105 86,105 Z" id="Path-2" fill="#000000" opacity="0.8"></path>
        </g>
    </g>
</svg>