<svg width="200" height="200" viewBox="0 0 200 200" xmlns="http://www.w3.org/2000/svg"><title>default</title><g fill="none" fill-rule="evenodd"><path d="M0 0h200v200H0V0zm100.152 150.84c33.37 0 72.153-3.586 72.153-36.956 0-33.37-38.783-83.884-72.153-83.884C66.782 30 28 80.515 28 113.884c0 33.37 38.783 36.957 72.152 36.957z" fill="#777568"/><path d="M168.85 128.132c1.933-4.016 3-8.732 3-14.267 0-16.162-9.098-36.346-22.273-52.865C142.947 68.447 139 77.8 139 87.96c0 17.898 12.257 33.3 29.85 40.172zM138.96 49.25c-8.532 8.798-25.214 14.773-44.396 14.773-15.468 0-29.31-3.885-38.564-10.003C69.094 39.99 85.004 30 99.844 30c13.095 0 27.024 7.78 39.116 19.25zM43.424 137.543c-.74.674-1.508 1.323-2.303 1.947C33.07 133.973 28 125.802 28 113.737c0-9.824 3.362-21.135 8.957-32.205C47.984 88.22 55.2 99.35 55.2 111.95c0 6.238-1.768 12.116-4.893 17.273-5.892.45-9.307 1.656-9.307 4.326 0 1.328.847 2.675 2.424 3.993z" fill="#FFF" opacity=".7"/><path d="M100.5 149.05c32.86 0 59.5-8.046 59.5-15.5 0-7.457-26.64-3.5-59.5-3.5s-59.5-3.957-59.5 3.5c0 7.454 26.64 15.5 59.5 15.5z" fill="#000" opacity=".5"/><path d="M144.37 129.002c2.72 28.53 11.356 50.116-44.108 50.116-55.46 0-46.828-21.584-44.107-50.112 10.895-.095 26.725 1.043 44.345 1.043 17.365 0 32.992-1.106 43.87-1.048z" fill="#FFF"/><path d="M78.5 83.866c3.59 0 6.5 3.24 6.5 0S82.09 78 78.5 78 72 80.626 72 83.866c0 3.24 2.91 0 6.5 0zM122.5 83.866c3.59 0 6.5 3.24 6.5 0S126.09 78 122.5 78s-6.5 2.626-6.5 5.866c0 3.24 2.91 0 6.5 0zM86 105c8.304 2.54 27 2.058 27 2.058s-6.23 11.827-21.376 9.246C93.274 110.904 86 105 86 105z" fill="#000" opacity=".6"/></g></svg>