<?xml version="1.0" encoding="UTF-8" standalone="no"?>
<svg width="488px" height="35px" viewBox="0 0 488 35" version="1.1" xmlns="http://www.w3.org/2000/svg" xmlns:xlink="http://www.w3.org/1999/xlink" xmlns:sketch="http://www.bohemiancoding.com/sketch/ns">
    <!-- Generator: Sketch 3.4.4 (17249) - http://www.bohemiancoding.com/sketch -->
    <title>logo</title>
    <desc>Created with Sketch.</desc>
    <defs></defs>
    <g id="Home-landing" stroke="none" stroke-width="1" fill="none" fill-rule="evenodd" sketch:type="MSPage">
        <g id="home/default_desktop" sketch:type="MSArtboardGroup" transform="translate(-356.000000, -264.000000)" fill="#FFFFFF">
            <path d="M376.289365,281.5 C379.023393,280.381944 380.41439,277.173611 380.41439,274.451389 C380.41439,270.319444 377.680362,264.534722 368.566935,264.534722 L356.767446,264.534722 C356.335758,264.534722 356,264.875 356,265.3125 L356,297.784722 C356,298.222222 356.335758,298.5625 356.767446,298.5625 L368.566935,298.5625 C377.680362,298.5625 380.41439,292.826389 380.41439,288.694444 C380.41439,286.020833 379.023393,282.666667 376.289365,281.5 L376.289365,281.5 Z M369.046589,293.215278 L361.803814,293.215278 L361.803814,284.465278 L369.238451,284.465278 C373.699233,284.5625 374.418714,287.1875 374.418714,288.694444 C374.418714,289.8125 373.699233,293.215278 369.046589,293.215278 L369.046589,293.215278 Z M369.238451,279.069444 L361.803814,279.069444 L361.803814,269.833333 L369.046589,269.833333 C373.699233,269.833333 374.418714,273.333333 374.418714,274.451389 C374.418714,275.763889 373.699233,278.972222 369.238451,279.069444 L369.238451,279.069444 Z M401.471201,264.826389 C401.279339,264.388889 400.895616,264.097222 400.415962,264.097222 L400.176135,264.097222 C399.696481,264.097222 399.264793,264.388889 399.120896,264.826389 L385.019068,297.833333 C384.875172,298.173611 385.114999,298.5625 385.498722,298.5625 L390.487124,298.5625 C390.966778,298.5625 391.350501,298.270833 391.542363,297.833333 L394.660114,289.909722 L405.884018,289.909722 L409.049735,297.833333 C409.241596,298.270833 409.625319,298.5625 410.104973,298.5625 L415.093375,298.5625 C415.477098,298.5625 415.716925,298.173611 415.573029,297.833333 L401.471201,264.826389 Z M400.320031,275.763889 L403.917437,284.902778 L396.674661,284.902778 L400.320031,275.763889 Z M427.228622,298.5625 C427.660311,298.5625 427.996068,298.222222 427.996068,297.784722 L427.996068,277.611111 L447.805779,298.513889 C448.093572,298.854167 448.477295,299 448.861018,299 C449.244741,299 449.532534,298.708333 449.532534,298.368056 L449.532534,265.3125 C449.532534,264.875 449.196776,264.534722 448.765087,264.534722 L444.400236,264.534722 C443.968547,264.534722 443.632789,264.875 443.632789,265.3125 L443.632789,285.097222 L423.727148,264.583333 C423.439355,264.291667 423.055632,264.145833 422.671909,264.145833 C422.384116,264.145833 422.096324,264.4375 422.096324,264.777778 L422.096324,297.784722 C422.096324,298.222222 422.432082,298.5625 422.86377,298.5625 L427.228622,298.5625 Z M470.877138,298.5625 C483.6839,298.5625 487.473167,288.791667 487.473167,281.5 C487.473167,274.402778 483.6839,264.534722 470.877138,264.534722 L459.893061,264.534722 C459.461372,264.534722 459.125614,264.875 459.125614,265.3125 L459.125614,297.784722 C459.125614,298.222222 459.461372,298.5625 459.893061,298.5625 L470.877138,298.5625 Z M464.929428,293.215278 L464.929428,269.833333 L470.877138,269.833333 C480.182426,269.833333 481.525457,278.486111 481.525457,281.5 C481.525457,284.513889 480.182426,293.215278 470.877138,293.215278 L464.929428,293.215278 Z M513.230588,284.465278 C513.662276,284.465278 513.998034,284.125 513.998034,283.6875 L513.998034,279.895833 C513.998034,279.458333 513.662276,279.118056 513.230588,279.118056 L500.99941,279.118056 L500.99941,269.881944 L516.827993,269.881944 C517.259682,269.881944 517.595439,269.541667 517.595439,269.104167 L517.595439,265.3125 C517.595439,264.875 517.259682,264.534722 516.827993,264.534722 L495.915078,264.534722 C495.483389,264.534722 495.147631,264.875 495.147631,265.3125 L495.147631,297.784722 C495.147631,298.222222 495.483389,298.5625 495.915078,298.5625 L516.827993,298.5625 C517.259682,298.5625 517.595439,298.222222 517.595439,297.784722 L517.595439,293.993056 C517.595439,293.555556 517.259682,293.215278 516.827993,293.215278 L500.99941,293.215278 L500.99941,284.465278 L513.230588,284.465278 Z M551.411048,298.5625 C564.21781,298.5625 568.007077,288.791667 568.007077,281.5 C568.007077,274.402778 564.21781,264.534722 551.411048,264.534722 L540.426971,264.534722 C539.995282,264.534722 539.659524,264.875 539.659524,265.3125 L539.659524,297.784722 C539.659524,298.222222 539.995282,298.5625 540.426971,298.5625 L551.411048,298.5625 Z M545.463338,293.215278 L545.463338,269.833333 L551.411048,269.833333 C560.716336,269.833333 562.059367,278.486111 562.059367,281.5 C562.059367,284.513889 560.716336,293.215278 551.411048,293.215278 L545.463338,293.215278 Z M593.764498,284.465278 C594.196186,284.465278 594.531944,284.125 594.531944,283.6875 L594.531944,279.895833 C594.531944,279.458333 594.196186,279.118056 593.764498,279.118056 L581.53332,279.118056 L581.53332,269.881944 L597.361903,269.881944 C597.793592,269.881944 598.129349,269.541667 598.129349,269.104167 L598.129349,265.3125 C598.129349,264.875 597.793592,264.534722 597.361903,264.534722 L576.448988,264.534722 C576.017299,264.534722 575.681541,264.875 575.681541,265.3125 L575.681541,297.784722 C575.681541,298.222222 576.017299,298.5625 576.448988,298.5625 L597.361903,298.5625 C597.793592,298.5625 598.129349,298.222222 598.129349,297.784722 L598.129349,293.993056 C598.129349,293.555556 597.793592,293.215278 597.361903,293.215278 L581.53332,293.215278 L581.53332,284.465278 L593.764498,284.465278 Z M617.075683,288.840278 C616.69196,289.034722 616.452133,289.472222 616.596029,289.861111 C618.178887,294.819444 621.200708,298.854167 628.299587,298.854167 C638.132495,298.854167 640.434834,290.979167 640.434834,285.4375 L640.434834,265.3125 C640.434834,264.875 640.099076,264.534722 639.667387,264.534722 L635.25457,264.534722 C634.822882,264.534722 634.487124,264.875 634.487124,265.3125 L634.487124,285.4375 C634.487124,287.479167 634.199332,293.166667 628.299587,293.3125 C624.654217,293.409722 622.879497,290.930556 621.776293,287.916667 C621.632396,287.527778 621.200708,287.333333 620.816984,287.479167 L617.075683,288.840278 Z M664.753293,264.048611 C651.94653,264.048611 648.109298,274.402778 648.109298,281.5 C648.109298,288.791667 651.94653,299 664.753293,299 C677.51209,299 681.349322,288.791667 681.349322,281.5 C681.349322,274.402778 677.51209,264.048611 664.753293,264.048611 L664.753293,264.048611 Z M664.753293,293.604167 C655.400039,293.604167 654.057008,284.513889 654.057008,281.5 C654.057008,278.486111 655.400039,269.493056 664.753293,269.493056 C674.010615,269.493056 675.353647,278.486111 675.353647,281.5 C675.353647,284.513889 674.010615,293.604167 664.753293,293.604167 L664.753293,293.604167 Z M701.734618,293.604167 C695.882839,293.604167 694.395911,287.673611 694.395911,285.486111 L694.395911,265.3125 C694.395911,264.875 694.060153,264.534722 693.628465,264.534722 L689.311579,264.534722 C688.87989,264.534722 688.544132,264.875 688.544132,265.3125 L688.544132,285.486111 C688.544132,291.173611 691.949676,298.902778 701.734618,298.902778 C711.51956,298.902778 714.973069,291.173611 714.973069,285.486111 L714.973069,265.3125 C714.973069,264.875 714.637311,264.534722 714.205622,264.534722 L709.792805,264.534722 C709.361117,264.534722 709.025359,264.875 709.025359,265.3125 L709.025359,285.486111 C709.025359,287.673611 707.586397,293.604167 701.734618,293.604167 L701.734618,293.604167 Z M742.169452,284.465278 C742.60114,284.465278 742.936898,284.125 742.936898,283.6875 L742.936898,279.895833 C742.936898,279.458333 742.60114,279.118056 742.169452,279.118056 L729.938274,279.118056 L729.938274,269.881944 L745.766857,269.881944 C746.198545,269.881944 746.534303,269.541667 746.534303,269.104167 L746.534303,265.3125 C746.534303,264.875 746.198545,264.534722 745.766857,264.534722 L724.853941,264.534722 C724.422253,264.534722 724.086495,264.875 724.086495,265.3125 L724.086495,297.784722 C724.086495,298.222222 724.422253,298.5625 724.853941,298.5625 L745.766857,298.5625 C746.198545,298.5625 746.534303,298.222222 746.534303,297.784722 L746.534303,293.993056 C746.534303,293.555556 746.198545,293.215278 745.766857,293.215278 L729.938274,293.215278 L729.938274,284.465278 L742.169452,284.465278 Z M766.919599,293.604167 C761.06782,293.604167 759.580892,287.673611 759.580892,285.486111 L759.580892,265.3125 C759.580892,264.875 759.245135,264.534722 758.813446,264.534722 L754.49656,264.534722 C754.064871,264.534722 753.729113,264.875 753.729113,265.3125 L753.729113,285.486111 C753.729113,291.173611 757.134657,298.902778 766.919599,298.902778 C776.704541,298.902778 780.15805,291.173611 780.15805,285.486111 L780.15805,265.3125 C780.15805,264.875 779.822292,264.534722 779.390603,264.534722 L774.977787,264.534722 C774.546098,264.534722 774.21034,264.875 774.21034,265.3125 L774.21034,285.486111 C774.21034,287.673611 772.771378,293.604167 766.919599,293.604167 L766.919599,293.604167 Z M795.07529,286.361111 L800.687242,286.361111 L806.011402,297.881944 C806.203263,298.270833 806.634952,298.5625 807.114606,298.5625 L811.911146,298.5625 C812.246904,298.5625 812.486731,298.173611 812.342835,297.881944 C810.568115,293.993056 808.409672,289.423611 806.634952,285.534722 C810.520149,283.979167 813.685866,280.333333 813.685866,275.375 C813.685866,270.951389 810.951838,264.534722 801.838412,264.534722 L790.038923,264.534722 C789.607234,264.534722 789.271476,264.875 789.271476,265.3125 L789.271476,297.784722 C789.271476,298.222222 789.607234,298.5625 790.038923,298.5625 L794.307844,298.5625 C794.739532,298.5625 795.07529,298.222222 795.07529,297.784722 L795.07529,286.361111 Z M802.2701,280.916667 L795.07529,280.916667 L795.07529,269.833333 L802.078239,269.833333 C806.778848,269.833333 807.786121,273.479167 807.786121,275.375 C807.786121,277.125 806.778848,280.819444 802.2701,280.916667 L802.2701,280.916667 Z M825.773147,273.333333 C825.965009,270.270833 828.45921,269.638889 831.624926,269.638889 C833.495577,269.638889 837.140948,270.708333 839.539218,271.631944 C839.922941,271.777778 840.402595,271.631944 840.546491,271.194444 L842.129349,267.645833 C842.273246,267.256944 842.129349,266.770833 841.697661,266.576389 C836.709259,264.340278 832.392373,264 830.569687,264 C824.334185,264 819.873403,267.597222 819.873403,273.673611 C819.873403,285.729167 837.908394,281.305556 837.908394,289.375 C837.908394,291.951389 834.886574,293.555556 831.576961,293.555556 C828.363279,293.555556 825.293493,292.534722 822.367604,291.222222 C821.98388,291.027778 821.552192,291.222222 821.36033,291.611111 L819.777472,295.0625 C819.58561,295.451389 819.729507,295.888889 820.11323,296.083333 C823.806566,297.979167 827.212109,298.951389 831.960684,298.951389 C838.867702,298.951389 844,294.819444 844,289.423611 C844,276.201389 825.869078,280.138889 825.773147,273.333333 L825.773147,273.333333 Z" id="logo" sketch:type="MSShapeGroup"></path>
        </g>
    </g>
</svg>